<?xml version="1.0" encoding="UTF-8" standalone="no"?>
<!-- Created with Inkscape (http://www.inkscape.org/) -->

<svg
   xmlns:dc="http://purl.org/dc/elements/1.1/"
   xmlns:cc="http://creativecommons.org/ns#"
   xmlns:rdf="http://www.w3.org/1999/02/22-rdf-syntax-ns#"
   xmlns:svg="http://www.w3.org/2000/svg"
   xmlns="http://www.w3.org/2000/svg"
   xmlns:sodipodi="http://sodipodi.sourceforge.net/DTD/sodipodi-0.dtd"
   xmlns:inkscape="http://www.inkscape.org/namespaces/inkscape"
   width="214.84303mm"
   height="42.452106mm"
   viewBox="0 0 214.84303 42.452106"
   version="1.1"
   id="svg8"
   inkscape:version="0.92.5 (2060ec1f9f, 2020-04-08)"
   sodipodi:docname="logo.svg">
  <defs
     id="defs2" />
  <sodipodi:namedview
     id="base"
     pagecolor="#ffffff"
     bordercolor="#666666"
     borderopacity="1.0"
     inkscape:pageopacity="0.0"
     inkscape:pageshadow="2"
     inkscape:zoom="0.35"
     inkscape:cx="344.34711"
     inkscape:cy="-257.59953"
     inkscape:document-units="mm"
     inkscape:current-layer="text5290"
     showgrid="false"
     inkscape:window-width="1684"
     inkscape:window-height="1376"
     inkscape:window-x="256"
     inkscape:window-y="87"
     inkscape:window-maximized="0"
     showguides="false"
     fit-margin-top="0"
     fit-margin-left="0"
     fit-margin-right="0"
     fit-margin-bottom="0" />
  <metadata
     id="metadata5">
    <rdf:RDF>
      <cc:Work
         rdf:about="">
        <dc:format>image/svg+xml</dc:format>
        <dc:type
           rdf:resource="http://purl.org/dc/dcmitype/StillImage" />
        <dc:title></dc:title>
      </cc:Work>
    </rdf:RDF>
  </metadata>
  <g
     inkscape:label="Layer 1"
     inkscape:groupmode="layer"
     id="layer1"
     transform="translate(-19.562493,-40.904661)">
    <path
       style="fill:#118ab2;fill-opacity:1;stroke-width:0.26458335"
       d="m 44.105961,77.580407 c -1.33816,-0.53504 -7.43549,-9.37194 -9.76976,-14.159388 -1.8626,-3.820064 -2.51783,-5.885261 -2.69582,-8.496736 -0.46743,-6.858398 4.35916,-12.801491 11.26694,-13.87327 6.85424,-1.063473 13.57967,3.786352 14.87738,10.72834 0.9653,5.163833 -1.86485,12.198844 -8.61101,21.404634 -3.2174,4.39046 -3.80585,4.90096 -5.06773,4.39642 z"
       id="path3742"
       inkscape:connector-curvature="0"
       sodipodi:nodetypes="cccscsc" />
    <path
       style="fill:none;stroke:#118ab2;stroke-width:5;stroke-linecap:round;stroke-linejoin:round;stroke-miterlimit:4;stroke-dasharray:none;stroke-opacity:1"
       d="m 57.015271,69.615087 c -0.27509,6.251622 8.39554,4.121906 7.2616,-0.101201 -0.66817,-3.608139 -4.59554,-4.881343 1.3462,-8.215257"
       id="path3759"
       inkscape:connector-curvature="0"
       sodipodi:nodetypes="ccc" />
    <path
       style="fill:none;stroke:#118ab2;stroke-width:5;stroke-linecap:round;stroke-linejoin:miter;stroke-miterlimit:4;stroke-dasharray:none;stroke-opacity:1"
       d="m 52.222061,76.76514 c 3.10481,2.851686 7.82921,6.603205 14.3519,1.861388"
       id="path4615"
       inkscape:connector-curvature="0"
       sodipodi:nodetypes="cc" />
    <circle
       style="fill:#ffffff;stroke:#ffffff;stroke-width:2.61116076;stroke-linecap:round;stroke-linejoin:round;stroke-miterlimit:4;stroke-dasharray:none"
       id="path4657"
       cx="44.788857"
       cy="52.372585"
       r="4.0787821" />
    <path
       style="fill:none;stroke:#118ab2;stroke-width:5;stroke-linecap:round;stroke-linejoin:round;stroke-miterlimit:4;stroke-dasharray:none;stroke-opacity:1"
       d="m 31.650031,68.901606 c 0.27509,6.251622 -8.39554,4.121906 -7.2616,-0.101201 0.66817,-3.608139 4.59554,-4.881343 -1.3462,-8.215257"
       id="path3759-7"
       inkscape:connector-curvature="0"
       sodipodi:nodetypes="ccc" />
    <path
       style="fill:none;stroke:#118ab2;stroke-width:5;stroke-linecap:round;stroke-linejoin:miter;stroke-miterlimit:4;stroke-dasharray:none;stroke-opacity:1"
       d="m 36.443241,76.051659 c -3.10481,2.851686 -7.82921,6.603205 -14.3519,1.861388"
       id="path4615-3"
       inkscape:connector-curvature="0"
       sodipodi:nodetypes="cc" />
    <g
       aria-label="DiveDB"
       style="font-style:normal;font-weight:normal;font-size:49.32844543px;line-height:1.25;font-family:sans-serif;letter-spacing:0px;word-spacing:0px;fill:#118ab2;fill-opacity:1;stroke:none;stroke-width:1.23321116"
       id="text5290">
      <path
         d="m 76.016814,76.40928 c 0,1.775825 0.937241,2.713065 2.713065,2.713065 h 9.81636 c 11.098901,0 18.202201,-6.610012 18.202201,-17.708912 0,-11.0989 -7.1033,-17.560927 -18.202201,-17.560927 h -9.81636 c -1.775824,0 -2.713065,0.937241 -2.713065,2.713065 z m 8.632478,-4.686202 V 51.251773 h 3.551648 c 5.820757,0 9.619047,3.452991 9.619047,10.16166 0,6.757997 -3.650305,10.309645 -9.619047,10.309645 z"
         style="font-style:normal;font-variant:normal;font-weight:bold;font-stretch:normal;font-family:'museo sans rounded';-inkscape-font-specification:'museo sans rounded Bold';letter-spacing:-1.32291663px;fill:#073b4c;fill-opacity:1"
         id="path17"
         inkscape:connector-curvature="0" />
      <path
         d="m 111.88746,50.511847 h 2.91038 c 1.77582,0 2.71306,-0.937241 2.71306,-2.713065 v -1.233211 c 0,-1.775824 -0.93724,-2.713065 -2.71306,-2.713065 h -2.91038 c -1.77583,0 -2.71307,0.937241 -2.71307,2.713065 v 1.233211 c 0,1.775824 0.93724,2.713065 2.71307,2.713065 z m -2.81172,25.897433 c 0,1.775825 0.93724,2.713065 2.71306,2.713065 h 3.10769 c 1.77583,0 2.71307,-0.93724 2.71307,-2.713065 V 56.43126 c 0,-1.775824 -0.93724,-2.713064 -2.71307,-2.713064 h -3.10769 c -1.77582,0 -2.71306,0.93724 -2.71306,2.713064 z"
         style="font-style:normal;font-variant:normal;font-weight:bold;font-stretch:normal;font-family:'museo sans rounded';-inkscape-font-specification:'museo sans rounded Bold';letter-spacing:-1.32291663px;fill:#073b4c;fill-opacity:1"
         id="path19"
         inkscape:connector-curvature="0" />
      <path
         d="m 126.34955,76.902565 c 0.49328,1.529182 1.47985,2.21978 3.05836,2.21978 h 5.77143 c 1.57851,0 2.56508,-0.690598 3.05836,-2.21978 l 6.85666,-20.076677 c 0.64127,-1.874481 -0.24665,-3.107692 -2.21978,-3.107692 h -3.40367 c -1.57851,0 -2.56508,0.739926 -3.00903,2.269108 L 133.2062,67.23419 c -0.49328,1.677167 -0.93724,4.390231 -0.93724,4.390231 h -0.0987 c 0,0 -0.44395,-2.762393 -0.93724,-4.390231 l -3.305,-11.246886 c -0.44396,-1.529182 -1.43053,-2.269108 -3.00904,-2.269108 h -3.305 c -2.02247,0 -2.86105,1.233211 -2.21978,3.107692 z"
         style="font-style:normal;font-variant:normal;font-weight:bold;font-stretch:normal;font-family:'museo sans rounded';-inkscape-font-specification:'museo sans rounded Bold';letter-spacing:-1.32291663px;fill:#073b4c;fill-opacity:1"
         id="path21"
         inkscape:connector-curvature="0" />
      <path
         d="m 145.2512,66.395606 c 0,6.757997 4.88352,13.31868 13.95995,13.31868 3.89695,0 6.90599,-1.233211 8.73114,-2.269108 1.47985,-0.838584 1.72649,-2.170452 0.93724,-3.699634 l -0.6906,-1.282539 c -0.83858,-1.57851 -2.02247,-1.775824 -3.6503,-1.035898 -1.28254,0.64127 -2.91038,1.183883 -4.63688,1.183883 -2.71306,0 -5.27814,-1.430525 -5.91941,-4.538217 h 13.36801 c 1.67716,0 2.86105,-1.479853 2.86105,-2.811721 0,-6.807326 -4.19292,-12.134798 -11.74017,-12.134798 -8.18853,0 -13.22003,5.820757 -13.22003,13.269352 z m 8.92845,-3.206349 c 0.44396,-2.022466 1.62784,-3.79829 4.09426,-3.79829 2.17045,0 3.50232,1.726495 3.50232,3.79829 z"
         style="font-style:normal;font-variant:normal;font-weight:bold;font-stretch:normal;font-family:'museo sans rounded';-inkscape-font-specification:'museo sans rounded Bold';letter-spacing:-1.32291663px;fill:#073b4c;fill-opacity:1"
         id="path23"
         inkscape:connector-curvature="0" />
      <path
         d="m 172.58803,75.915996 c 0,2.071795 1.13456,3.206349 3.25568,3.206349 h 9.71771 c 11.34554,0 18.49816,-6.708669 18.49816,-17.807569 0,-11.148228 -7.15262,-17.659583 -18.49816,-17.659583 h -9.71771 c -2.12112,0 -3.25568,1.085226 -3.25568,3.206349 z m 10.40831,-5.672771 V 52.534313 h 2.21978 c 4.93284,0 8.08986,2.910378 8.08986,8.780463 0,5.870085 -2.95971,8.928449 -8.08986,8.928449 z"
         style="font-style:normal;font-variant:normal;font-weight:900;font-stretch:normal;font-family:'museo sans rounded';-inkscape-font-specification:'museo sans rounded Heavy'"
         id="path25"
         inkscape:connector-curvature="0" />
      <path
         d="m 206.73227,75.915996 c 0,2.071795 1.13455,3.206349 3.25568,3.206349 h 9.96434 c 7.39927,0 14.45324,-2.565079 14.45324,-10.753601 0,-2.762393 -1.23322,-6.412698 -5.42613,-7.744566 v -0.09866 c 2.66373,-1.57851 3.9956,-4.735531 3.9956,-7.497924 0,-6.264712 -5.27814,-9.372404 -12.87472,-9.372404 h -10.11233 c -2.12113,0 -3.25568,1.085226 -3.25568,3.206349 z m 10.4083,-19.090108 v -4.78486 h 2.91038 c 1.87448,0 2.56508,1.183883 2.56508,2.367766 0,0.986569 -0.6906,2.417094 -2.36777,2.417094 z m 0,13.910621 v -5.623443 h 3.74896 c 2.12112,0 3.10769,1.479854 3.10769,2.762393 0,1.381197 -1.08522,2.86105 -3.15702,2.86105 z"
         style="font-style:normal;font-variant:normal;font-weight:900;font-stretch:normal;font-family:'museo sans rounded';-inkscape-font-specification:'museo sans rounded Heavy'"
         id="path27"
         inkscape:connector-curvature="0" />
    </g>
  </g>
</svg>
